<?xml version="1.0" encoding="UTF-8"?>
<svg id="Layer_2" data-name="Layer 2" xmlns="http://www.w3.org/2000/svg" viewBox="0 0 345.27 55.76">
  <defs>
    <style>
      .cls-1 {
        fill: #060606;
      }
    </style>
  </defs>
  <g id="Layer_1-2" data-name="Layer 1">
    <g>
      <path class="cls-1" d="M16.03,28.36l5.71-5.98c.69-.74,1.16-1.16,1.16-2.54,0-1.96-1.9-3.49-3.65-3.49-1.16,0-2.17,.63-2.96,1.48L7.72,27.35V9.79c0-2.54-1.53-3.86-3.86-3.86S0,7.25,0,9.79v31.74c0,2.54,1.53,3.86,3.86,3.86s3.86-1.32,3.86-3.86v-5.87l2.7-2.38,7.3,10.32c.58,.85,1.59,1.8,3.49,1.8,2.06,0,3.65-1.8,3.65-3.76,0-1.27-.53-2.12-.79-2.49l-8.04-10.79Z"/>
      <path class="cls-1" d="M41.79,16.35c-3.76,0-5.5,3.33-6.4,6.56h-.11v-2.96c0-2.33-1.53-3.6-3.49-3.6s-3.49,1.27-3.49,3.6v21.58c0,2.06,.85,3.86,3.86,3.86s3.86-1.8,3.86-3.86v-8.99c0-6.4,1.69-8.57,4.81-8.57h1.38c1.9,0,3.81-1,3.81-3.86,0-2.17-1.8-3.76-4.23-3.76Z"/>
      <path class="cls-1" d="M72.58,24.28c0-5.55-5.13-7.94-12.54-7.94-7.93,0-12.27,3.91-12.27,6.98,0,1.59,1.32,2.96,3.28,2.96,3.07,0,3.23-4.23,8.94-4.23,2.59,0,4.87,.95,4.87,3.17s-1.48,2.65-3.33,2.86l-4.71,.53c-5.92,.69-10.79,2.49-10.79,8.89,0,4.87,4.34,7.88,8.73,7.88,4.07,0,7.57-1.16,10.58-4.5,.11,2.38,1.22,4.5,4.55,4.5,1.85,0,3.49-1.22,3.49-2.96,0-1.22-.79-1.96-.79-5.18v-12.96Zm-7.72,10.42c0,2.86-2.59,5.61-6.82,5.61-2.65,0-4.29-1.43-4.29-3.17,0-2.33,1.75-3.33,4.97-3.81l2.8-.42c.9-.16,2.49-.42,3.33-1.22v3.02Z"/>
      <path class="cls-1" d="M106.61,22.12c2.28,0,3.49-.69,3.49-2.54s-1.22-2.54-3.49-2.54h-2.33v-4.71c0-2.54-1.53-3.86-3.86-3.86s-3.86,1.32-3.86,3.86v4.71h-1.32c-.19,0-.36,.01-.53,.03-.22-.02-.44-.03-.67-.03h-6.72v-3.33c0-1.06,.58-1.8,1.69-1.8,.58,0,1.11,.16,1.69,.16,1.38,0,2.49-1.22,2.49-2.65,0-2.59-2.27-3.7-5.08-3.7-4.5,0-8.52,2.59-8.52,7.46v3.86h-1.75c-2.17,0-3.07,.85-3.07,2.54s.9,2.54,3.07,2.54h1.75v19.42c0,2.54,1.53,3.86,3.86,3.86s3.86-1.32,3.86-3.86V22.12h6.72c.24,0,.46-.01,.67-.03,.17,.01,.34,.03,.53,.03h1.32v16.4c0,4.55,2.33,6.88,7.94,6.88,3.7,0,5.61-1.22,5.61-3.44,0-1.64-1.01-2.59-2.7-2.59h-1.11c-1.38,0-2.01-.63-2.01-1.8v-15.45h2.33Z"/>
      <path class="cls-1" d="M168.76,21.75c-3.86,0-6.19,2.38-7.04,6.14h13.54c-.42-3.54-3.07-6.14-6.51-6.14Z"/>
      <path class="cls-1" d="M303.6,21.75c-3.86,0-6.19,2.38-7.04,6.14h13.54c-.42-3.54-3.07-6.14-6.51-6.14Z"/>
      <path class="cls-1" d="M323.11,0H122.83c-3.95,0-7.15,3.2-7.15,7.15V48.62c0,3.95,3.2,7.15,7.15,7.15h200.28c3.95,0,7.15-3.2,7.15-7.15V7.15c0-3.95-3.2-7.15-7.15-7.15ZM151.78,22.33l-7.3,20.31c-.74,2.06-1.22,2.75-5.08,2.75s-4.34-.69-5.08-2.75l-7.3-20.31c-.21-.64-.48-1.48-.48-1.96,0-2.75,1.9-4.02,3.76-4.02,2.91,0,3.65,2.43,3.86,3.23l5.18,17.46h.11l5.18-17.46c.21-.79,.95-3.23,3.86-3.23,1.85,0,3.76,1.27,3.76,4.02,0,.48-.26,1.32-.48,1.96Zm27.4,10h-17.46c0,4.07,2.65,7.04,7.14,7.04,5.82,0,5.82-3.81,8.94-3.81,1.85,0,3.17,1.59,3.17,3.02,0,4.66-7.46,6.82-12.12,6.82-10.79,0-14.87-7.3-14.87-14.02,0-8.99,5.45-15.02,14.6-15.02s13.97,6.3,13.97,12.64c0,2.65-.79,3.33-3.39,3.33Zm34.01,9.21c0,2.06-.85,3.86-3.86,3.86s-3.86-1.8-3.86-3.86v-13.49c0-3.12-1.53-5.34-4.87-5.34-2.7,0-5.87,2.22-5.87,6.08v12.75c0,2.06-.85,3.86-3.86,3.86s-3.86-1.8-3.86-3.86V20.21c0-2.33,1.06-3.86,3.49-3.86s3.49,1.53,3.49,3.86v1h.11c2.17-2.86,4.97-4.87,9.36-4.87,4.66,0,9.73,2.33,9.73,10.16v15.02Zm17.35-2.17h1.11c1.69,0,2.7,.95,2.7,2.59,0,2.22-1.9,3.44-5.61,3.44-5.61,0-7.94-2.33-7.94-6.88V22.12h-1.32c-2.17,0-3.07-.85-3.07-2.54s.9-2.54,3.07-2.54h1.32v-4.71c0-2.54,1.53-3.86,3.86-3.86s3.86,1.32,3.86,3.86v4.71h2.33c2.28,0,3.49,.69,3.49,2.54s-1.22,2.54-3.49,2.54h-2.33v15.45c0,1.16,.63,1.8,2.01,1.8Zm33.49,2.17c0,2.33-1.06,3.86-3.49,3.86s-3.49-1.53-3.49-3.86v-1.01h-.11c-2.17,2.86-4.97,4.87-9.36,4.87-4.66,0-9.73-2.33-9.73-10.16v-15.02c0-2.06,.85-3.86,3.86-3.86s3.86,1.8,3.86,3.86v13.49c0,3.12,1.53,5.34,4.87,5.34,2.7,0,5.87-2.22,5.87-6.08v-12.75c0-2.06,.85-3.86,3.86-3.86s3.86,1.8,3.86,3.86v21.32Zm19.94-17.56h-1.38c-3.12,0-4.81,2.17-4.81,8.57v8.99c0,2.06-.85,3.86-3.86,3.86s-3.86-1.8-3.86-3.86V19.95c0-2.33,1.53-3.6,3.49-3.6s3.49,1.27,3.49,3.6v2.96h.11c.9-3.23,2.64-6.56,6.4-6.56,2.43,0,4.23,1.59,4.23,3.76,0,2.86-1.9,3.86-3.81,3.86Zm30.05,8.36h-17.46c0,4.07,2.64,7.04,7.14,7.04,5.82,0,5.82-3.81,8.94-3.81,1.85,0,3.17,1.59,3.17,3.02,0,4.66-7.46,6.82-12.11,6.82-10.79,0-14.87-7.3-14.87-14.02,0-8.99,5.45-15.02,14.6-15.02s13.97,6.3,13.97,12.64c0,2.65-.79,3.33-3.39,3.33Z"/>
      <path class="cls-1" d="M337.9,.45h-3.63c-.36,0-.65,.18-.65,.53s.29,.53,.65,.53h1.19v3.93c0,.38,.25,.63,.63,.63s.63-.25,.63-.63V1.5h1.19c.36,0,.65-.18,.65-.53s-.29-.53-.65-.53Z"/>
      <path class="cls-1" d="M344.59,.35h-.35c-.39,0-.57,.15-.7,.57l-1.08,3.54h-.02l-1.1-3.54c-.13-.42-.31-.57-.7-.57h-.37c-.34,0-.68,.11-.68,.62V5.45c0,.31,.15,.61,.56,.61s.56-.3,.56-.61V2.03h.02l1.17,3.66c.08,.26,.28,.37,.54,.37s.45-.11,.54-.37l1.17-3.66h.02v3.42c0,.31,.15,.61,.56,.61s.56-.3,.56-.61V.97c0-.51-.34-.62-.68-.62Z"/>
    </g>
  </g>
</svg>